<?xml version="1.0" standalone="no"?>
<!DOCTYPE svg PUBLIC "-//W3C//DTD SVG 20010904//EN"
 "http://www.w3.org/TR/2001/REC-SVG-20010904/DTD/svg10.dtd">
<svg version="1.0" xmlns="http://www.w3.org/2000/svg"
 width="512.000000pt" height="512.000000pt" viewBox="0 0 512.000000 512.000000"
 preserveAspectRatio="xMidYMid meet">

<g transform="translate(0.000000,512.000000) scale(0.100000,-0.100000)"
fill="#000000" stroke="none">
<path d="M1190 5105 c-156 -32 -225 -71 -528 -299 -330 -247 -316 -226 -320
-479 -3 -158 -1 -186 17 -247 37 -121 150 -218 274 -236 l47 -6 0 -811 c0
-446 -2 -808 -4 -806 -2 2 -23 76 -46 164 -50 190 -58 210 -100 259 -151 171
-439 64 -440 -164 0 -40 48 -237 177 -720 153 -573 182 -672 210 -713 l33 -49
-40 -435 c-22 -239 -40 -453 -40 -474 0 -115 151 -118 167 -4 3 22 21 222 41
445 l37 405 485 3 c562 3 560 3 640 -77 70 -70 80 -112 80 -334 0 -172 -1
-180 -25 -221 -34 -58 -53 -115 -61 -185 -6 -58 -5 -61 24 -91 l30 -30 712 0
712 0 30 30 c29 30 30 33 24 91 -8 70 -27 127 -61 185 -24 41 -25 49 -25 221
0 222 10 264 80 334 80 80 78 80 640 77 l485 -3 37 -405 c20 -223 38 -423 41
-445 16 -114 167 -111 167 4 0 21 -18 236 -40 476 l-40 436 24 32 c13 18 28
41 34 53 6 11 90 317 187 679 194 728 195 732 148 826 -80 156 -287 185 -410
57 -42 -43 -53 -71 -103 -263 -23 -88 -44 -162 -46 -164 -2 -2 -4 360 -4 806
l0 811 48 6 c123 18 236 115 273 236 18 61 20 89 17 247 -4 253 10 232 -323
481 -264 198 -353 252 -480 289 -56 17 -151 18 -1390 20 -1077 1 -1342 -1
-1395 -12z m2714 -170 c112 -24 178 -62 416 -241 l225 -169 -993 -3 c-545 -1
-1439 -1 -1985 0 l-992 3 225 169 c234 176 305 217 411 241 98 21 2593 21
2693 0z m-2716 -703 c-3 -111 -5 -121 -30 -154 -48 -63 -84 -70 -325 -66
l-210 3 -37 29 c-58 44 -76 93 -76 209 l0 97 341 0 341 0 -4 -118z m862 21 c0
-116 -18 -165 -76 -209 l-37 -29 -210 -3 c-241 -4 -277 3 -325 66 -25 33 -27
43 -30 154 l-4 118 341 0 341 0 0 -97z m850 -6 c0 -129 -21 -177 -91 -214 -43
-23 -50 -24 -260 -21 -211 3 -216 4 -252 28 -59 40 -77 88 -77 208 l0 102 340
0 340 0 0 -103z m848 -15 c-3 -111 -5 -121 -30 -154 -48 -63 -84 -70 -325 -66
l-210 3 -37 29 c-58 44 -76 93 -76 209 l0 97 341 0 341 0 -4 -118z m862 21 c0
-116 -18 -165 -76 -209 l-37 -29 -210 -3 c-241 -4 -277 3 -325 66 -25 33 -27
43 -30 154 l-4 118 341 0 341 0 0 -97z m-3286 -337 c88 -67 112 -71 391 -71
234 0 253 2 296 22 25 11 62 35 82 53 l37 32 39 -31 c22 -17 61 -41 88 -54 46
-21 60 -22 303 -22 243 0 257 1 303 22 27 13 66 37 88 54 l39 31 37 -32 c20
-18 57 -42 82 -53 43 -20 62 -22 296 -22 279 0 303 4 391 71 l45 34 37 -29
c74 -60 125 -75 265 -79 l127 -4 0 -1142 c0 -995 -2 -1149 -15 -1194 l-16 -51
-457 -3 -457 -3 -57 -28 c-181 -89 -255 -325 -136 -432 l39 -36 -26 -33 c-50
-66 -68 -138 -73 -294 -4 -128 -6 -143 -21 -137 -9 4 -40 11 -68 17 -48 10
-54 14 -73 52 -26 54 -45 120 -66 226 -13 69 -17 171 -21 548 l-5 462 466 0
466 0 0 -42 c0 -90 56 -144 123 -119 52 20 60 61 55 281 -5 219 -12 246 -76
314 -74 77 -61 76 -569 76 -249 0 -453 4 -453 9 0 4 14 103 30 219 35 239 33
266 -22 319 -36 35 -76 53 -114 53 -13 0 -24 2 -24 5 0 24 124 205 140 205 4
0 27 -9 51 -20 100 -45 228 -15 305 73 142 161 39 415 -176 434 -166 15 -306
-126 -287 -289 6 -48 5 -50 -56 -123 -34 -41 -63 -72 -64 -68 0 5 -14 49 -29
98 -21 69 -28 111 -29 180 -1 99 -13 134 -69 193 -51 55 -101 76 -181 77 -59
0 -78 -5 -123 -29 -189 -105 -173 -370 27 -459 44 -19 131 -20 187 -2 26 8 36
-16 59 -149 22 -131 23 -126 -34 -126 -63 0 -98 -13 -139 -53 -55 -53 -57 -80
-22 -319 16 -116 30 -215 30 -219 0 -5 -203 -9 -450 -9 -499 0 -485 2 -560
-67 -75 -67 -84 -99 -88 -323 -5 -221 3 -261 55 -281 67 -25 123 29 123 119
l0 42 465 0 465 0 0 -400 c0 -498 -18 -674 -83 -821 -24 -55 -26 -56 -78 -67
-30 -6 -61 -13 -70 -17 -15 -6 -17 9 -21 137 -5 156 -23 228 -73 294 l-26 34
35 30 c19 17 42 51 52 76 33 86 -10 218 -98 300 -27 25 -70 55 -96 67 -46 21
-59 22 -504 25 l-457 3 -16 51 c-13 45 -15 199 -15 1194 l0 1142 128 3 c120 4
131 6 193 36 36 18 74 42 84 53 10 11 20 20 21 20 2 0 24 -15 48 -34z m1037
-445 c31 -31 36 -59 17 -94 -42 -79 -158 -52 -158 37 0 26 7 40 31 60 40 34
74 33 110 -3z m684 -86 c37 -36 34 -86 -7 -120 -25 -21 -38 -25 -62 -21 -36 7
-76 48 -76 77 0 26 26 76 42 82 34 14 80 6 103 -18z m-330 -677 c-2 -13 -16
-106 -31 -208 -14 -101 -28 -188 -30 -192 -7 -10 -181 -10 -188 0 -2 4 -16 91
-30 192 -15 102 -29 195 -31 208 l-5 22 160 0 160 0 -5 -22z m-2321 -170 c22
-20 48 -108 201 -680 96 -361 175 -664 175 -673 0 -27 -55 -75 -87 -75 -67 1
-61 -15 -249 686 -95 357 -174 662 -174 677 0 76 79 114 134 65z m4441 -3 c15
-14 25 -36 25 -52 0 -15 -77 -320 -172 -678 -186 -699 -184 -695 -248 -695
-34 0 -90 46 -90 73 0 9 79 312 175 674 154 577 178 661 201 681 34 29 78 29
109 -3z m-1108 -427 c19 -18 23 -32 23 -85 l0 -63 -1190 0 -1190 0 0 62 c0 50
4 66 22 85 l21 23 1146 0 1145 0 23 -22z m-1074 -790 c4 -381 8 -490 21 -558
14 -74 44 -188 62 -235 5 -13 -16 -15 -175 -15 -100 0 -181 2 -181 3 0 2 9 29
19 60 57 164 71 327 71 812 l0 405 89 0 89 0 5 -472z m-886 -49 c15 -6 39 -20
52 -32 24 -22 60 -91 61 -114 0 -10 -101 -13 -473 -13 l-473 0 0 85 0 85 402
0 c261 0 413 -4 431 -11z m2419 -74 l-1 -85 -472 0 c-319 0 -473 3 -473 10 0
21 31 85 53 109 46 49 54 50 488 51 l405 0 0 -85z m-1215 -865 c20 -6 51 -20
70 -33 33 -22 99 -100 99 -118 0 -5 -233 -9 -580 -9 -319 0 -580 2 -580 5 0 4
6 18 14 33 21 41 76 88 126 111 43 20 64 21 430 21 228 0 400 -4 421 -10z"/>
</g>
</svg>
