<?xml version="1.0" standalone="no"?>
<!DOCTYPE svg PUBLIC "-//W3C//DTD SVG 20010904//EN"
 "http://www.w3.org/TR/2001/REC-SVG-20010904/DTD/svg10.dtd">
<svg version="1.0" xmlns="http://www.w3.org/2000/svg"
 width="256.000000pt" height="256.000000pt" viewBox="0 0 256.000000 256.000000"
 preserveAspectRatio="xMidYMid meet">

<g transform="translate(0.000000,256.000000) scale(0.100000,-0.100000)"
fill="#000000" stroke="none">
<path d="M1065 2534 c-351 -63 -653 -260 -852 -554 -47 -69 -118 -216 -147
-305 -86 -260 -86 -547 -1 -802 138 -415 473 -729 893 -839 52 -13 100 -24
108 -24 12 0 14 72 14 445 l0 445 -160 0 -160 0 0 185 0 185 160 0 160 0 0
178 c0 257 30 366 126 466 101 106 221 142 434 133 74 -4 152 -9 173 -13 l37
-7 0 -158 0 -159 -112 0 c-88 0 -122 -4 -153 -19 -88 -40 -105 -86 -105 -276
l0 -145 176 0 177 0 -7 -47 c-3 -27 -16 -110 -27 -185 l-22 -138 -148 0 -149
0 0 -445 c0 -373 2 -445 14 -445 32 0 208 51 281 82 279 118 518 343 655 617
116 233 158 558 105 811 -111 528 -519 924 -1044 1014 -116 20 -316 20 -426 0z"/>
</g>
</svg>
