<?xml version="1.0" encoding="utf-8"?>
<!-- Generator: Adobe Illustrator 25.4.1, SVG Export Plug-In . SVG Version: 6.00 Build 0)  -->
<svg version="1.1" id="Layer_1" xmlns="http://www.w3.org/2000/svg" xmlns:xlink="http://www.w3.org/1999/xlink" x="0px" y="0px"
	 viewBox="0 0 441 171" style="enable-background:new 0 0 441 171;" xml:space="preserve">
<style type="text/css">
	.st0{fill:#FFFFFF;}
</style>
<g>
	<path class="st0" d="M82.4,95c1.9,0,3.7-0.5,5.4-1.4c1.6-0.9,3.1-2.2,4.2-3.7l3.6,3.5c-1.6,1.9-3.6,3.5-5.8,4.6
		c-2.3,1.2-4.8,1.8-7.4,1.8c-2.3,0-4.7-0.5-6.8-1.4c-2.1-0.9-3.9-2.3-5.5-3.9c-1.6-1.7-2.9-3.7-3.8-5.8c-1.9-4.5-1.9-9.6,0-14.1
		c0.9-2.1,2.2-4.1,3.8-5.8c1.6-1.7,3.5-3,5.6-3.9c2.1-1,4.5-1.5,6.8-1.4c2.2,0,4.3,0.4,6.3,1.3c2,0.9,3.7,2,5.3,3.5l-3.1,4
		c-1.1-1.2-2.4-2.1-3.9-2.9c-1.5-0.7-3.1-1.1-4.7-1.1c-1.7,0-3.3,0.4-4.8,1.1c-1.5,0.7-2.8,1.7-3.9,2.9c-1.1,1.2-2.1,2.7-2.7,4.2
		c-1.3,3.3-1.3,7,0,10.4c0.6,1.6,1.5,3,2.6,4.2c1.1,1.2,2.4,2.2,3.9,2.9C79.1,94.7,80.7,95,82.4,95z"/>
	<path class="st0" d="M122.6,75.4v23.9h-4.1l-0.8-2.8c-0.8,1.1-1.9,2-3.2,2.5c-1.2,0.6-2.6,0.8-3.9,0.9c-1.6,0-3.2-0.3-4.7-1
		c-1.4-0.6-2.7-1.5-3.8-2.7c-3.5-3.7-4.5-9.1-2.6-13.8c0.6-1.5,1.5-2.8,2.6-4c1.1-1.1,2.4-2,3.8-2.7c1.5-0.7,3.1-1,4.7-1
		c1.3,0,2.6,0.3,3.9,0.8c1.3,0.5,2.4,1.4,3.3,2.4l0.8-2.6L122.6,75.4z M110.6,95.7c1,0,1.9-0.2,2.8-0.6c0.9-0.4,1.6-1,2.2-1.8
		c0.7-0.8,1.2-1.7,1.5-2.6c0.7-2.1,0.7-4.3,0-6.4c-0.3-1-0.8-1.8-1.5-2.6c-0.6-0.7-1.4-1.3-2.2-1.8c-0.9-0.4-1.8-0.7-2.8-0.6
		c-1,0-1.9,0.2-2.8,0.6c-0.9,0.4-1.6,1-2.2,1.8c-0.6,0.8-1.2,1.7-1.5,2.6c-0.7,2.1-0.7,4.3,0,6.4c0.3,1,0.9,1.8,1.5,2.6
		c0.6,0.7,1.4,1.3,2.2,1.8C108.7,95.5,109.7,95.7,110.6,95.7z"/>
	<path class="st0" d="M131.1,99.4V79.7H127v-3.3l4.1-1v-2.9c0-1.5,0.2-3,0.6-4.4c0.4-1.1,1-2.2,1.8-3.1c0.7-0.8,1.6-1.4,2.6-1.8
		c1-0.4,2-0.6,3.1-0.6c1.4,0,2.8,0.3,4.1,0.9V67c-1-0.3-2-0.5-3.1-0.6c-1.2-0.1-2.3,0.4-3.2,1.2c-0.8,1.2-1.3,2.6-1.1,4v3.6h7.4v4.3
		h-7.4v19.6L131.1,99.4z"/>
	<path class="st0" d="M158.4,100c-1.7,0-3.3-0.3-4.9-1c-4.6-2-7.6-6.5-7.6-11.6c0-3.3,1.2-6.5,3.4-8.9c1-1.1,2.3-2,3.7-2.7
		c1.4-0.7,2.9-1,4.5-1c1.6,0,3.1,0.3,4.5,0.9c1.4,0.6,2.6,1.5,3.6,2.6c1.1,1.4,1.9,2.9,2.4,4.6c0.6,2.2,0.9,4.4,0.9,6.6h-17.8
		c0.2,0.9,0.6,1.7,1.1,2.4c0.5,0.7,1.1,1.4,1.8,1.9c0.7,0.6,1.5,1,2.3,1.3c0.9,0.3,1.8,0.5,2.7,0.4c1.2,0,2.4-0.2,3.5-0.7
		c1-0.4,2-1.1,2.8-1.9l3,3c-1.2,1.2-2.7,2.2-4.3,2.8C162.2,99.6,160.3,100,158.4,100z M157.5,79.3c-0.7,0-1.5,0.1-2.2,0.4
		c-0.7,0.3-1.3,0.7-1.9,1.2c-0.6,0.5-1.1,1.2-1.5,1.9c-0.4,0.8-0.7,1.6-0.9,2.4h12.6c-0.1-0.8-0.3-1.6-0.6-2.3
		c-0.3-0.7-0.7-1.4-1.2-1.9c-0.5-0.5-1.2-1-1.9-1.3C159.2,79.4,158.4,79.3,157.5,79.3L157.5,79.3z M161,63.9l-2.8,8.9h-3.9l1.2-8.9
		H161z"/>
	<path class="st0" d="M180.5,98.4V62.9h12.6c2.3,0,4.7,0.4,6.8,1.4c1.9,0.9,3.6,2.2,4.9,3.8c1.4,1.7,2.4,3.6,3,5.6
		c0.7,2.2,1,4.6,1,6.9c0,2.4-0.3,4.7-1.1,6.9c-0.7,2-1.7,3.9-3,5.6c-1.2,1.6-2.7,2.8-4.5,3.8c-1.7,0.9-3.6,1.4-5.6,1.4H180.5z
		 M192.9,93.5c1.7,0.1,3.3-0.3,4.9-1c1.3-0.7,2.4-1.6,3.3-2.8c0.9-1.2,1.5-2.6,1.9-4.1c0.4-1.6,0.6-3.3,0.6-4.9
		c0-1.7-0.2-3.3-0.6-4.9c-0.4-1.5-1-2.9-1.9-4.2c-0.9-1.2-2-2.2-3.3-2.9c-1.5-0.8-3.2-1.1-4.9-1.1h-7.1v25.8L192.9,93.5z"/>
	<path class="st0" d="M226.1,99c-1.7,0-3.3-0.3-4.9-1c-3-1.3-5.4-3.7-6.6-6.7c-0.7-1.6-1-3.2-1-4.9c0-1.7,0.3-3.3,0.9-4.9
		c0.6-1.5,1.4-2.8,2.5-4c1-1.1,2.3-2,3.7-2.7c1.4-0.7,2.9-1,4.5-1c1.6,0,3.1,0.3,4.5,0.9c1.4,0.6,2.6,1.5,3.6,2.6
		c1.1,1.3,1.9,2.9,2.4,4.6c0.6,2.2,0.9,4.4,0.9,6.6h-17.8c0.2,0.9,0.6,1.7,1.1,2.4c0.5,0.8,1.1,1.4,1.8,2c0.7,0.5,1.5,1,2.3,1.3
		c0.9,0.3,1.8,0.4,2.7,0.4c2.4,0,4.6-0.9,6.3-2.5l3,3c-1.2,1.2-2.7,2.2-4.3,2.8C229.8,98.6,228,99,226.1,99z M225.2,78.3
		c-0.7,0-1.5,0.1-2.2,0.4c-0.7,0.3-1.3,0.7-1.9,1.2c-0.6,0.6-1.1,1.2-1.5,1.9c-0.4,0.8-0.7,1.6-0.9,2.4h12.6
		c-0.1-0.8-0.3-1.6-0.5-2.3c-0.3-0.7-0.7-1.4-1.2-1.9c-0.5-0.6-1.2-1-1.9-1.3C226.9,78.4,226,78.3,225.2,78.3L225.2,78.3z
		 M228.7,62.9l-2.8,8.9h-4l1.2-8.9H228.7z"/>
	<path class="st0" d="M243.2,74.4h4.9V100c0.1,1.8-0.3,3.5-1,5.1c-0.6,1.1-1.5,2-2.6,2.6c-1.1,0.5-2.4,0.7-3.6,0.6
		c-1.4-0.1-2.7-0.4-4-0.9l0.9-3.6c0.9,0.1,1.7,0.2,2.6,0.2c0.6,0,1.2-0.1,1.7-0.4c0.4-0.2,0.8-0.6,0.9-1.1c0.2-0.6,0.3-1.2,0.3-1.9
		L243.2,74.4z M245.5,63c0.8,0,1.6,0.3,2.2,0.9c0.6,0.6,0.9,1.4,0.9,2.2c0,1.7-1.4,3.1-3.1,3.1c-0.8,0-1.6-0.3-2.2-0.9
		c-0.6-0.6-0.9-1.4-0.9-2.2C242.4,64.4,243.8,63,245.5,63C245.5,63,245.5,63,245.5,63L245.5,63z"/>
	<path class="st0" d="M265.3,99c-1.7,0-3.3-0.3-4.9-1c-3-1.3-5.4-3.7-6.7-6.7c-0.7-1.6-1-3.2-1-4.9c0-1.7,0.3-3.3,0.9-4.9
		c0.6-1.5,1.4-2.8,2.5-4c1-1.1,2.3-2,3.7-2.7c1.4-0.7,2.9-1,4.5-1c1.5,0,3.1,0.3,4.5,0.9c1.4,0.6,2.6,1.5,3.6,2.6
		c1.1,1.3,1.9,2.9,2.4,4.6c0.6,2.2,0.9,4.4,0.9,6.6h-17.8c0.2,0.9,0.6,1.7,1.1,2.4c0.5,0.8,1.1,1.4,1.8,2c1.4,1.1,3.2,1.7,5,1.7
		c2.4,0,4.6-0.9,6.3-2.5l3,3c-1.2,1.2-2.7,2.2-4.3,2.8C269,98.6,267.2,99,265.3,99z M264.4,78.3c-0.8,0-1.5,0.1-2.2,0.4
		c-0.7,0.3-1.3,0.7-1.9,1.2c-0.6,0.6-1.1,1.2-1.5,1.9c-0.4,0.8-0.7,1.6-0.9,2.4h12.6c-0.1-0.8-0.3-1.6-0.5-2.3
		c-0.3-0.7-0.7-1.4-1.2-1.9c-0.5-0.6-1.2-1-1.9-1.3C266.1,78.4,265.2,78.3,264.4,78.3L264.4,78.3z"/>
	<path class="st0" d="M296.7,96.2c-0.9,0.8-1.9,1.4-2.9,1.9c-1.2,0.5-2.4,0.8-3.7,0.8c-1,0-2-0.1-3-0.4c-1.1-0.3-2.2-0.8-3.1-1.5
		c-1-0.8-1.8-1.8-2.4-3c-0.7-1.6-1.1-3.3-1-5V74.4h4.6V89c0,0.9,0.1,1.8,0.5,2.6c0.3,0.7,0.7,1.3,1.2,1.7c0.5,0.4,1.1,0.8,1.8,0.9
		c0.7,0.2,1.4,0.3,2,0.3c0.6,0,1.2-0.1,1.8-0.3c0.7-0.2,1.4-0.6,1.9-1c0.6-0.5,1.1-1.1,1.5-1.7c0.4-0.8,0.7-1.7,0.6-2.6V74.4h4.9v24
		h-3.8L296.7,96.2z"/>
	<path class="st0" d="M311.9,98.4h-4.9v-24h3.9l1,2.1c0.8-0.8,1.8-1.4,2.9-1.9c1.2-0.5,2.4-0.8,3.7-0.8c1,0,2,0.1,3,0.4
		c1.1,0.3,2.2,0.8,3.1,1.5c1,0.8,1.8,1.9,2.4,3.1c0.7,1.6,1.1,3.3,1,5.1v14.5h-4.6V83.8c0-0.9-0.1-1.8-0.5-2.6
		c-0.5-1.3-1.6-2.3-3-2.6c-0.7-0.2-1.3-0.3-2-0.3c-0.6,0-1.2,0.1-1.8,0.3c-0.7,0.2-1.3,0.6-1.9,1c-0.6,0.5-1.1,1-1.5,1.7
		c-0.4,0.8-0.6,1.6-0.6,2.5L311.9,98.4z"/>
	<path class="st0" d="M345.2,99c-1.7,0-3.3-0.3-4.9-1c-3-1.3-5.4-3.7-6.6-6.7c-0.7-1.6-1-3.2-1-4.9c0-1.7,0.3-3.3,1-4.9
		c0.6-1.5,1.4-2.8,2.5-4c1-1.1,2.3-2,3.7-2.7c1.4-0.7,2.9-1,4.5-1c1.5,0,3.1,0.3,4.5,0.9c1.4,0.6,2.6,1.5,3.6,2.6
		c1.1,1.3,1.9,2.9,2.4,4.6c0.6,2.2,0.9,4.4,0.9,6.6h-17.8c0.2,0.9,0.6,1.7,1.1,2.4c0.5,0.8,1.1,1.4,1.8,2c1.4,1.1,3.2,1.7,5,1.7
		c2.4,0,4.6-0.9,6.3-2.5l3,3c-1.2,1.2-2.7,2.2-4.3,2.8C349,98.7,347.1,99,345.2,99z M344.3,78.3c-0.8,0-1.5,0.1-2.2,0.4
		c-0.7,0.3-1.3,0.7-1.9,1.2c-0.6,0.6-1.1,1.2-1.5,1.9c-0.4,0.8-0.7,1.6-0.9,2.4h12.6c-0.1-0.8-0.3-1.6-0.5-2.3
		C349,79.7,346.8,78.2,344.3,78.3L344.3,78.3z"/>
	<path class="st0" d="M374.1,78.6c-0.2-0.1-0.5-0.1-0.7-0.2c-0.3-0.1-0.6-0.1-0.8-0.1c-0.9,0-1.8,0.1-2.7,0.5
		c-0.8,0.3-1.5,0.7-2.2,1.3c-0.6,0.5-1.1,1.2-1.4,1.9c-0.3,0.7-0.5,1.5-0.5,2.3l0,14.2h-4.8v-24h3.8l1,2.7c0.7-1,1.6-1.8,2.6-2.3
		c1.3-0.6,2.7-0.9,4.1-0.9c1.2,0,2.5,0.2,3.7,0.4l-1.2,4.6L374.1,78.6z"/>
</g>
</svg>
